<svg xmlns="http://www.w3.org/2000/svg" xmlns:xlink="http://www.w3.org/1999/xlink" width="80" height="16" viewBox="0 0 80 16">
    <defs>
        <path id="prefix__a" d="M0 2.584L.76.004h3.754c.688-.041 1.363.207 1.868.687.469.516.711 1.206.67 1.91.017.455-.094.905-.32 1.298-.203.337-.528.58-.905.673.472.096.894.365 1.185.757.28.444.417.968.39 1.496.053.745-.216 1.477-.735 2.003-.614.493-1.384.734-2.162.677H.76V2.584H0zm3.407-.332v1.353h.37c.19.014.378-.049.524-.174.127-.135.192-.319.18-.506.012-.185-.053-.368-.18-.501-.147-.124-.334-.186-.524-.172h-.37zm0 3.396v1.507h.472c.227.016.45-.054.63-.196.295-.312.295-.806 0-1.117-.18-.14-.404-.209-.63-.194h-.472z"/>
        <path id="prefix__c" d="M0.735 0L3.45 0 3.45 6.929 5.556 6.929 4.829 9.512 0.735 9.513 0.735 2.583 0 2.583 0.732 0z"/>
        <path id="prefix__e" d="M0 2.515L.755 0H3.53v5.054c-.03.412.03.826.176 1.213.13.208.36.334.605.332.245-.002.472-.131.6-.342.148-.383.21-.794.181-1.203V0h2.778v5.028c.007.544-.029 1.088-.109 1.626-.055.373-.172.735-.346 1.069-.29.555-.73 1.016-1.27 1.328-1.15.616-2.529.616-3.678 0C1.595 8.547 1.002 7.668.86 6.667.78 6.124.745 5.577.754 5.028V2.515H0z"/>
        <path id="prefix__g" d="M0 2.583L0.757 0 5.955 0 5.211 2.583 3.484 2.583 3.484 3.504 5.725 3.504 5.012 5.933 3.484 5.933 3.484 6.931 6.019 6.931 5.267 9.513 0.751 9.513 0.751 2.583z"/>
        <path id="prefix__i" d="M.761 0h2.295c.63-.007 1.258.042 1.88.147.445.071.875.224 1.266.452.673.417 1.22 1.013 1.58 1.721.378.757.567 1.595.552 2.442.015.843-.173 1.677-.548 2.43-.363.708-.91 1.303-1.584 1.721-.395.23-.829.384-1.28.455-.686.108-1.381.156-2.077.143H.761V2.583H0L.76.005.76.001zm2.811 6.597c.515.041 1.026-.12 1.425-.451.33-.384.493-.887.45-1.393.039-.5-.115-.996-.43-1.383-.358-.33-.836-.494-1.319-.455h-.126v3.682z"/>
        <path id="prefix__k" d="M2.063 2.583L0 9.513 3.066 9.513 3.31 8.31 5.467 8.31 5.723 9.513 8.798 9.513 6.016 0 2.066 0 1.295 2.583z"/>
        <path id="prefix__m" d="M0 3.33h1.39l-.286-1.133C.964 1.624.869 1.183.818.873.77.583.738.293.723 0H.666C.65.292.619.584.57.873c-.051.31-.146.75-.285 1.324L0 3.329z"/>
        <path id="prefix__o" d="M.743.008h3.461c.845-.06 1.677.237 2.307.826.566.647.854 1.507.797 2.381.023.586-.117 1.166-.4 1.672-.232.413-.63.695-1.084.768l2.048 3.858h-3.09L3.437 6.386v3.127H.743v-6.92L.74 2.587H0L.742.008zM3.438 2.46v1.865h.43c.226.015.446-.072.606-.238.152-.19.228-.434.213-.682.016-.253-.06-.503-.213-.7-.158-.17-.38-.26-.606-.245h-.43z"/>
        <path id="prefix__q" d="M1.634 9.513L1.634 2.583 0 2.583 0.766 0 6.482 0 5.707 2.583 4.477 2.583 4.477 9.513z"/>
        <path id="prefix__s" d="M6.076 7.135L0 14.269 14.354 7.135 0 0z"/>
        <path id="prefix__u" d="M1.869 5.233L0 10.464 4.63 5.233 0 0z"/>
    </defs>
    <g fill="none" fill-rule="evenodd">
        <g transform="translate(.082 .365) translate(0 2.378)">
            <mask id="prefix__b" fill="#fff">
                <use xlink:href="#prefix__a"/>
            </mask>
            <use fill="#ACB0BD" xlink:href="#prefix__a"/>
            <path fill="#0074B8" d="M-2.315 11.891L9.724 11.891 9.724 -2.378 -2.315 -2.378z" mask="url(#prefix__b)"/>
        </g>
        <g transform="translate(.082 .365) translate(7.409 2.378)">
            <mask id="prefix__d" fill="#fff">
                <use xlink:href="#prefix__c"/>
            </mask>
            <path fill="#0074B8" d="M-2.315 11.891L7.872 11.891 7.872 -2.378 -2.315 -2.378z" mask="url(#prefix__d)"/>
        </g>
        <g transform="translate(.082 .365) translate(13.428 2.378)">
            <mask id="prefix__f" fill="#fff">
                <use xlink:href="#prefix__e"/>
            </mask>
            <path fill="#0074B8" d="M-2.315 11.891L10.187 11.891 10.187 -2.378 -2.315 -2.378z" mask="url(#prefix__f)"/>
        </g>
        <g transform="translate(.082 .365) translate(22.226 2.378)">
            <mask id="prefix__h" fill="#fff">
                <use xlink:href="#prefix__g"/>
            </mask>
            <path fill="#0074B8" d="M-2.315 11.891L8.335 11.891 8.335 -2.378 -2.315 -2.378z" mask="url(#prefix__h)"/>
        </g>
        <g transform="translate(.082 .365) translate(31.95 2.378)">
            <mask id="prefix__j" fill="#fff">
                <use xlink:href="#prefix__i"/>
            </mask>
            <path fill="#00A656" d="M-2.315 11.891L10.65 11.891 10.65 -2.378 -2.315 -2.378z" mask="url(#prefix__j)"/>
        </g>
        <g transform="translate(.082 .365) translate(40.284 2.378)">
            <mask id="prefix__l" fill="#fff">
                <use xlink:href="#prefix__k"/>
            </mask>
            <path fill="#00A656" d="M-2.315 11.891L11.113 11.891 11.113 -2.378 -2.315 -2.378z" mask="url(#prefix__l)"/>
        </g>
        <g transform="translate(.082 .365) translate(43.988 5.232)">
            <mask id="prefix__n" fill="#fff">
                <use xlink:href="#prefix__m"/>
            </mask>
            <path fill="#FFF" d="M-2.315 5.708L3.704 5.708 3.704 -2.378 -2.315 -2.378z" mask="url(#prefix__n)"/>
        </g>
        <g transform="translate(.082 .365) translate(48.619 2.378)">
            <mask id="prefix__p" fill="#fff">
                <use xlink:href="#prefix__o"/>
            </mask>
            <path fill="#00A656" d="M-2.315 11.891L10.187 11.891 10.187 -2.378 -2.315 -2.378z" mask="url(#prefix__p)"/>
        </g>
        <g transform="translate(.082 .365) translate(56.49 2.378)">
            <mask id="prefix__r" fill="#fff">
                <use xlink:href="#prefix__q"/>
            </mask>
            <path fill="#00A656" d="M-2.315 11.891L8.798 11.891 8.798 -2.378 -2.315 -2.378z" mask="url(#prefix__r)"/>
        </g>
        <g transform="translate(.082 .365) translate(63.899)">
            <mask id="prefix__t" fill="#fff">
                <use xlink:href="#prefix__s"/>
            </mask>
            <path fill="#0074B8" d="M-2.315 16.647L16.669 16.647 16.669 -2.378 -2.315 -2.378z" mask="url(#prefix__t)"/>
        </g>
        <g transform="translate(.082 .365) translate(63.899 1.903)">
            <mask id="prefix__v" fill="#fff">
                <use xlink:href="#prefix__u"/>
            </mask>
            <path fill="#00A656" d="M-2.315 12.842L6.946 12.842 6.946 -2.378 -2.315 -2.378z" mask="url(#prefix__v)"/>
        </g>
    </g>
</svg>
