<svg xmlns="http://www.w3.org/2000/svg" xmlns:xlink="http://www.w3.org/1999/xlink" width="53" height="33" viewBox="0 0 53 33">
    <defs>
        <path id="prefix__a" d="M.007 30.875c.296-1.263.612-2.522.884-3.79C2.109 21.4 3.309 15.71 4.54 10.028c.082-.308.271-.577.533-.76 5.46-3.612 11.255-6.562 17.442-8.715.368-.116.76-.13 1.135-.039 2.521.62 4.877 1.586 6.78 3.439 1.91 1.86 2.87 4.19 3.211 6.776.54 4.08-.09 7.966-2.127 11.582-.05.09-.105.179-.16.266-.022.034-.052.062-.157.185l-.24-1.87c-1.174 0-2.328-.009-3.482.013-.155.031-.284.138-.343.285-.376 1.732-.73 3.47-1.111 5.309.62 0 1.14.057 1.633-.03.189-.033.409-.376.463-.612.322-1.41.599-2.832.979-4.26l.568 3.29.156.059 1.311-1.75.198 1.485.131.025c.478-.955 1.006-1.888 1.417-2.87.3-.719.718-1.04 1.493-.908.28.047.574.007.913.007l-.588 1.4-.15.12c-.697 1.144-1.39 2.291-2.097 3.43-.114.185-.274.458-.436.476-.63.068-1.287.13-1.899.012-.178-.034-.241-.67-.359-1.029-.018-.055-.046-.106-.083-.19-.073.041-.141.09-.205.145-3.01 3.24-6.827 4.828-11.117 5.45-.892.128-1.784.25-2.676.375-5.078 0-10.156-.003-15.234-.009-.151 0-.494.2-.433-.24zm21.114-12.199c-.092 1.8-.87 3.393-.752 5.153.057.85-.312 1.728-.506 2.685.533 0 .984-.012 1.434.004.385.014.551-.165.621-.533.147-.772.32-1.54.495-2.306.139-.61.483-1.054 1.11-1.214.57-.145.985.196.94.787-.04.328-.1.654-.18.975l-.45 2.282c.594 0 1.072.04 1.537-.02.191-.024.473-.236.512-.409.24-1.068.512-2.142.603-3.228.122-1.45-.996-2.265-2.398-1.86-.098.027-.2.042-.3.062.078-.23.245-.328.365-.466 1.655-1.898 2.881-3.994 3.004-6.59.165-3.464-1.587-5.879-4.92-6.83-1.908-.543-3.763-.359-5.597.32-3.297 1.222-5.6 3.556-7.216 6.595-1.157 2.176-1.97 4.47-1.742 7.009.21 2.335 2.008 4 4.9 3.97 0-.51-.048-1.023.008-1.525.182-1.646 1.5-2.65 3.362-2.601 1.48.039 2.097.76 2.224 2.601.001.018.018.034.062.11.036-.135.065-.228.085-.323.289-1.334.572-2.668.866-4 .063-.289.047-.655.505-.65.452.007.904.002 1.428.002zm-8.258 6.47l-.13.216c.433.311.827.773 1.308.897.698.18 1.463.187 2.19.14.986-.064 1.156-.348 1.037-1.422-.376.1-.757.18-1.14.24-.375.024-.75.027-1.125.01l.007-.13 2.817-.674-.036-.155h-3.559l.204.8-1.573.077zm4.78 1.36c.596 0 1.11.018 1.62-.012.133-.009.344-.148.372-.263.217-.889.399-1.787.62-2.814-.773.31-1.386.545-1.986.81-.118.074-.202.194-.23.331-.137.6-.248 1.207-.396 1.948zm9.822-6.536c1.734.276 2.13.023 2.064-1.288-1.92-.153-1.98-.227-2.064 1.288zm-10.79 3.201c-.03-.647-.247-1.03-.867-1.066-.713-.04-1.215.336-1.374 1.066h2.24z"/>
        <path id="prefix__c" d="M46.824 21.04c-.508.825-1.024 1.645-1.523 2.474-.738 1.225-1.441 2.47-2.2 3.681-.891 1.421-2.097 1.848-3.84 1.391.09-.413.178-.829.278-1.294.352 0 .681.015 1.009-.003.803-.045 1.228-.534 1.074-1.322-.214-1.096-.478-2.183-.746-3.267-.034-.135-.221-.325-.343-.33-.516-.033-1.034-.013-1.547.061-.746.134-1.082.716-1.242 1.4-.156.664-.288 1.335-.411 2.006-.079.432-.276.662-.75.627-.407-.03-.819-.007-1.307-.007l.464-2.26h-3.893c.07.777.41 1.09 1.23 1.086.57-.003 1.138-.129 1.707-.2.134.88-.031 1.16-.856 1.261-.551.078-1.11.09-1.664.037-1.575-.184-2.389-1.332-2.105-2.896.063-.345.149-.685.225-1.029l.15-.122c.791-1.145 1.923-1.514 3.248-1.383 1.195.119 1.898.898 1.954 2.104-.003.195.04.387.127.561.137-.678.32-1.352.395-2.037.059-.543.289-.708.799-.65.348.02.698.023 1.047.006l-.095.97c.19-.137.328-.22.447-.324.498-.45 1.155-.683 1.825-.647.31.01.62.001.931.001 1.217 0 1.21.001 1.365 1.24.076.696.218 1.383.425 2.052l.711-1.245c.035-.051.064-.106.088-.164.486-1.466 1.399-2.25 3.023-1.902v.124zm-12.633 2.131c.003-.717-.223-1.015-.773-1.065-.723-.066-1.282.347-1.41 1.065h2.183zM15.616 0C12.203 1.99 8.773 3.952 5.384 5.984 3.773 6.95 2.24 8.049.571 9.155c.234-1.115.444-2.134.662-3.151.372-1.74.742-3.48 1.13-5.217.062-.273.212-.525.322-.787h12.93zm-2.134 26.506c.147-.74.259-1.347.395-1.948.03-.137.113-.257.231-.332.6-.264 1.213-.498 1.985-.809-.22 1.027-.402 1.925-.62 2.814-.027.115-.238.255-.371.263-.51.03-1.024.012-1.62.012zm9.822-6.536c.084-1.515.144-1.441 2.063-1.288.066 1.311-.329 1.564-2.063 1.288zm-4.043-1.264c-.213 1.027-.365 2.022-.65 2.978-.087.29-.527.492-.83.698-.389.263-.801.49-1.332.81.249-1.186.445-2.234.69-3.27.345-1.46-.027-1.226 1.555-1.248.16-.002.321.018.567.032z"/>
    </defs>
    <g fill="none" fill-rule="evenodd" transform="translate(.148 .212)">
        <mask id="prefix__b" fill="#fff">
            <use xlink:href="#prefix__a"/>
        </mask>
        <path fill="#EE3A26" d="M-5.201 36.369L40.486 36.369 40.486 -4.753 -5.201 -4.753z" mask="url(#prefix__b)"/>
        <g transform="translate(4.161)">
            <mask id="prefix__d" fill="#fff">
                <use xlink:href="#prefix__c"/>
            </mask>
            <path fill="#EE3A26" d="M-4.631 33.97L52.026 33.97 52.026 -5.208 -4.631 -5.208z" mask="url(#prefix__d)"/>
        </g>
    </g>
</svg>
