<svg xmlns="http://www.w3.org/2000/svg" xmlns:xlink="http://www.w3.org/1999/xlink" width="81" height="20" viewBox="0 0 81 20">
    <defs>
        <path id="prefix__a" d="M0 0h56.481c1.523.655 2.935 1.575 4.097 2.74.648.674 1.226 1.44 1.522 2.325.298.932.207 1.942-.076 2.867-.434 1.356-1.241 2.568-2.161 3.658-1.765 2.115-3.958 3.83-6.1 5.565.744.004 1.489.022 2.232.004.328-.016.658.014.985-.014.278-.142.511-.355.773-.523 2.167-1.507 4.337-3.045 6.16-4.948.828-.873 1.587-1.822 2.143-2.883.502-.943.81-1.992.803-3.06.267.775.305 1.616.117 2.411-.28 1.196-.951 2.265-1.728 3.215-1.899 2.285-4.356 4.032-6.742 5.799 6.582-.001 13.164-.002 19.747 0v.044H0V0z"/>
        <path id="prefix__c" d="M2.63 0h3.607c.164.142.377.192.573.272.289.119.585.22.864.363l.173.051.058.067.232.06.064.078.15.03c.084.045.169.086.256.127l.038.058.177.033.049.066c.527.255 1.024.571 1.5.913.744.588 1.451 1.314 1.732 2.247.001-.037.002-.075.005-.113.191.71.329 1.458.194 2.19-.186 1.156-.73 2.217-1.382 3.172-1.155 1.66-2.651 3.042-4.217 4.3-1.198.961-2.46 1.837-3.74 2.683-.181.12-.361.243-.554.344l-.075.075c-.032.007-.097.02-.129.028l-.045.147c-.72.019-1.44 0-2.16-.003 2.073-1.739 4.196-3.457 5.905-5.576.89-1.093 1.672-2.307 2.091-3.665.275-.927.363-1.938.074-2.872-.286-.887-.846-1.655-1.473-2.329C5.472 1.578 4.105.656 2.63 0z"/>
        <path id="prefix__e" d="M20.116 0h18.128v17.197c-6.612-.003-13.224-.001-19.836 0 2.397-1.771 4.865-3.522 6.773-5.813.78-.952 1.455-2.024 1.736-3.222.188-.797.15-1.64-.118-2.417.007 1.07-.303 2.122-.807 3.067-.559 1.064-1.32 2.015-2.153 2.89-1.83 1.907-4.01 3.449-6.187 4.959-.263.17-.498.382-.777.525-.329.028-.66-.002-.99.014l.048-.148.133-.028.079-.075c.2-.101.386-.224.573-.344 1.329-.846 2.638-1.723 3.882-2.684 1.624-1.259 3.177-2.643 4.374-4.303.678-.955 1.242-2.017 1.434-3.172.14-.734-.002-1.482-.2-2.192-.003.038-.004.076-.005.113-.292-.933-1.026-1.66-1.798-2.248-.494-.342-1.01-.659-1.556-.913l-.051-.067-.184-.033-.039-.058c-.09-.04-.179-.082-.266-.127l-.155-.03-.067-.077-.24-.06-.061-.067-.179-.052c-.289-.142-.597-.244-.896-.363-.204-.08-.425-.13-.595-.272zM8.377.767C8.817.55 9.342.536 9.82.624c.25.045.524.272.422.536-.074.162-.062.337-.048.51.106.157.213.313.318.471l-.208.128c.057.104.055.222.077.335.023.099.097.21.017.304-.185.21-.548.088-.73.294.335.179.618.447.767.787.275.596.38 1.247.612 1.858.653-.201 1.305-.404 1.957-.61.136-.266.484-.399.776-.293.296.096.425.464.286.722-.102.173-.338.23-.532.18-.166-.04-.337.006-.479.09-.65.362-1.304.716-1.954 1.078-.22.122-.5.204-.745.1-.2-.08-.318-.264-.419-.436-.2-.352-.402-.703-.604-1.054-.185.51-.387 1.013-.571 1.522-.084.18.036.362.182.472.53.414 1.217.614 1.704 1.082.287.283.312.701.338 1.072.067.893.134 1.786.21 2.677l-.237.008.06.23c.321.11.595.312.915.422.13.048.282.041.405.11.105.133-.014.341-.166.391-.379.083-.747-.079-1.12-.106-.324-.027-.643.11-.964.051-.17-.028-.255-.208-.209-.356.054-.218.165-.46-.008-.659l-.154.016c-.064-.25-.14-.498-.18-.753-.105-.544-.072-1.105-.194-1.646-.036-.185-.227-.272-.388-.344-.496-.207-1.052-.274-1.516-.55-.648.708-1.285 1.438-2.07 2.016-.365.274-.782.477-1.208.65-.431.174-.835.4-1.24.623l-.315-.202c-.556.358-1.257.492-1.732.962-.184.158-.3.436-.584.445-.217.03-.317-.22-.284-.387.007-.245.19-.433.378-.58.308-.243.428-.617.598-.948.203-.34.66-.373 1.025-.427v-.235c.285-.15.573-.294.885-.384-.037-.109-.101-.205-.179-.29.209-.063.426-.092.64-.13-.089-.078-.184-.148-.286-.211.253-.108.53-.12.804-.108-.114-.137-.29-.189-.46-.228.235-.148.527-.101.792-.1-.043-.217-.296-.237-.479-.272.257-.118.535-.178.82-.182-.142-.1-.315-.139-.486-.172.181-.205.476-.219.736-.22-.123-.112-.287-.152-.446-.19.208-.163.484-.168.74-.181-.124-.086-.278-.106-.426-.123l.108-.175c-.636-.27-1.31-.51-1.832-.964-.226-.182-.373-.462-.309-.747.14.18.31.341.53.427.836.356 1.674.726 2.567.93.51.118 1.053.076 1.547-.087.404-.156.635-.547.756-.926.095-.343.108-.73-.063-1.053-.29-.333-.748-.457-1.17-.56-.095-.04-.23-.028-.287-.123l.271.043-.002-.164c-.194-.002-.389.014-.582-.004-.095-.016-.12-.129-.176-.187.252-.022.506-.016.76-.016l-.002-.156c-.25-.001-.499-.002-.749.002l-.039-.194c.262-.007.525-.004.787-.006l.005-.153c-.273-.002-.547-.001-.82-.002-.013-.083-.026-.165-.037-.247.283-.001.566-.002.85-.001l.009-.152c-.353-.005-.706.006-1.056-.037-.493.05-.988.031-1.483.032l.086-.216c.817-.012 1.634 0 2.45-.007 0-.039-.003-.117-.004-.155-.785-.003-1.57.005-2.355-.004.237-.368.688-.546 1.127-.565.914-.053 1.828-.116 2.743-.165.009-.095.037-.197-.038-.276-.187-.257-.377-.535-.387-.858-.037-.352.181-.7.51-.856z"/>
        <path id="prefix__g" d="M0 .286L.073 0C.441 0 .81 0 1.177.003c-.04.094-.077.188-.115.283-.354 0-.708.002-1.062 0z"/>
        <path id="prefix__i" d="M1.4.023c.245-.045.507-.007.759-.02.133.012.305-.037.403.062.428.353.949.64 1.535.782.34.088.742.105.995.336.255.228.234.571.132.85-.075.28-.276.547-.592.683-.42.19-.92.165-1.379.112-1.031-.146-1.992-.51-2.922-.89-.321-.134-.405-.475-.268-.732C.31.693.842.31 1.4.023z"/>
        <path id="prefix__k" d="M.66 0c.161.06.34.099.477.204.102.106-.019.24-.073.338C.92.74.814.97.624 1.133.407 1.191.202 1.047 0 .99.22.66.443.332.66 0z"/>
        <path id="prefix__m" d="M.51 0l.078.034C.468.184.333.327.195.469.153.52.079.552 0 .573.145.373.342.192.51 0z"/>
        <path id="prefix__o" d="M.406.203C.452.135.498.067.546 0c.211.068.42.14.63.211l-.142.202L.866.354c-.198.26-.37.535-.573.791-.098.012-.197-.057-.293-.08C.19.796.385.53.573.26L.406.203z"/>
        <path id="prefix__q" d="M.662 0c.16.061.336.1.472.205.09.076.018.187-.03.265C.97.673.846.883.688 1.071c-.05.07-.153.09-.235.066C.296 1.1.149 1.039 0 .986.222.658.44.327.662 0z"/>
        <path id="prefix__s" d="M.296.225C.381.145.443.047.588 0 .563.114.443.205.351.302.251.4.162.509 0 .573.044.442.193.34.296.225z"/>
        <path id="prefix__u" d="M.52.1c.179-.162.515-.119.645.073.056.17-.099.313-.181.452l-.29-.1c.073-.106.145-.214.2-.33C.757.198.709.322.642.404.522.585.374.756.296.958c.146-.03.2-.16.274-.26.099.032.197.066.296.1-.1.132-.195.297-.383.335-.18.047-.43-.03-.483-.205C0 .787.1.67.176.553.288.4.383.235.52.099z"/>
        <path id="prefix__w" d="M13.025.208c.323-.04.628-.175.951-.207h6.029c-.222.655-.45 1.308-.671 1.963-.573-.002-1.146-.025-1.719-.02-.642 1.837-1.298 3.67-1.94 5.506-.875.002-1.748-.004-2.623.003l-.082-.063c-.214-.01-.426-.045-.629-.114-.372-.139-.774-.084-1.162-.1l.024-.087c.397-.027.809.04 1.19-.101.26-.093.531-.138.806-.13l.053-.17c-.233-.005-.465-.035-.685-.113-.38-.147-.792-.068-1.187-.11.044-.054.099-.08.165-.08.34-.023.691.038 1.02-.08.283-.101.58-.16.882-.147l.06-.141c-.246-.009-.485-.073-.719-.145-.369-.117-.76-.042-1.137-.1.054-.031.11-.07.174-.065.32-.017.645.027.957-.062.296-.078.595-.155.902-.164l.063-.13c-.243-.034-.483-.093-.721-.153-.346-.095-.706-.047-1.06-.067L12 5.044c.383-.016.78.036 1.15-.094.25-.095.516-.127.782-.12l.059-.182c-.297-.019-.572-.142-.86-.2-.294-.034-.59-.015-.884-.024l.031-.087c.225-.006.45-.01.675-.007l.008-.07.012.08c.406-.058.789-.229 1.203-.239L14.245 4c-.186-.019-.37-.055-.542-.128-.385-.164-.81-.048-1.21-.132.103-.074.237-.052.355-.059.283.003.57.013.84-.085.234-.086.48-.116.724-.14l.062-.116c-.325-.043-.614-.243-.946-.242-.25-.012-.5-.008-.747-.041l.07-.066c.379-.045.78.034 1.139-.125.22-.094.456-.13.693-.141l.057-.152c-.255-.024-.492-.12-.736-.19-.316-.052-.641-.003-.957-.066.057-.04.12-.066.19-.061.368-.022.75.021 1.1-.117.207-.09.438-.08.648-.158-.579-.048-1.162-.012-1.742-.048-.262-.079-.515-.201-.791-.228-.269-.024-.54-.003-.808-.034.182-.133.434-.044.644-.08.366.017.696-.16 1.052-.206l.07-.182c-.161-.053-.32-.114-.482-.16-.311-.077-.636-.018-.95-.063L11.91.928c.315-.037.633 0 .947-.041.244-.052.479-.142.724-.185l.07-.2c-.208-.06-.411-.148-.63-.167-.283-.026-.569-.016-.852-.049.052-.032.098-.089.168-.072.23-.009.46.012.689-.006zM3.04.218c.504.05.97-.202 1.469-.217 1.238 0 2.475.003 3.713 0 .502-.004 1.016.039 1.485.234.457.205.911.492 1.18.933.15.307.286.636.292.984.005.932-.253 1.841-.601 2.695-.32.775-.904 1.42-1.596 1.867-.835.51-1.817.732-2.785.732-1.407.015-2.816 0-4.224.007-.307.007-.608-.063-.899-.158-.33-.108-.681-.025-1.017-.081L0 7.15c.397-.049.81.042 1.194-.098.245-.08.496-.146.755-.144l.052-.17c-.233-.005-.46-.062-.68-.136-.35-.126-.727-.027-1.085-.093l.03-.063c.38-.042.773.037 1.14-.097.253-.088.515-.14.782-.15l.058-.13c-.217-.03-.43-.083-.641-.145-.366-.117-.754-.051-1.129-.098.06-.09.168-.066.257-.073.278-.012.562.027.833-.052.283-.078.569-.15.862-.177l.052-.135c-.223-.042-.444-.09-.663-.145-.336-.09-.685-.05-1.028-.064l.01-.093c.325-.01.654.017.974-.044.288-.087.579-.189.885-.17l.066-.183c-.26-.029-.505-.124-.757-.187-.313-.053-.632-.02-.947-.036l.04-.076c.367-.049.75.034 1.107-.097.238-.086.488-.121.738-.15l.06-.104c-.25-.018-.479-.129-.718-.194-.324-.043-.653-.018-.979-.05.023-.015.067-.049.09-.065.352-.032.718.037 1.06-.088.233-.076.473-.134.72-.136l.047-.128c-.262-.053-.502-.18-.765-.23-.292-.028-.585-.021-.878-.045l.03-.08c.383-.04.784.04 1.147-.12.218-.092.452-.128.686-.144.01-.038.033-.114.045-.153-.248-.027-.482-.117-.72-.186-.317-.053-.64-.01-.958-.061l.09-.057c.393-.045.804.022 1.182-.126.19-.077.391-.102.59-.131l.071-.118c-.198-.04-.393-.092-.584-.157-.351-.116-.725-.04-1.085-.093.07-.08.177-.068.27-.073.303-.01.616.016.908-.087.216-.078.441-.123.67-.134l.055-.161c-.306-.04-.583-.209-.895-.21-.25-.016-.502 0-.751-.035.19-.118.428-.043.639-.066.414.023.787-.2 1.196-.225l.05-.151c-.218-.044-.426-.122-.64-.18-.324-.052-.656-.024-.981-.072.127-.126.324-.046.483-.066zM21.283.216c.505.047.971-.217 1.474-.216h3.845c.644-.004 1.304.135 1.845.504.315.208.62.472.762.836.106.258.212.525.21.809-.002.622-.104 1.243-.295 1.834-.195.624-.424 1.257-.842 1.766-.505.65-1.205 1.133-1.979 1.39-.647.233-1.337.31-2.02.308-1.15.01-2.297.001-3.446.004-.477-.006-.968.042-1.428-.117-.374-.146-.78-.088-1.17-.106l.013-.087c.292-.015.586.004.878-.023.341-.07.667-.221 1.022-.211l.057-.168c-.23-.013-.456-.062-.674-.135-.361-.123-.746-.043-1.119-.09.038-.053.088-.08.15-.079.324-.024.657.037.972-.067.28-.086.564-.175.86-.163l.05-.14c-.296-.025-.573-.14-.863-.194-.303-.043-.61-.008-.914-.049l.094-.058c.34-.039.688.027 1.02-.07.281-.079.566-.142.856-.174l.047-.132c-.228-.044-.454-.094-.678-.15-.35-.093-.713-.03-1.068-.072l.084-.068c.362-.05.74.03 1.092-.097.239-.087.489-.14.744-.126l.074-.184c-.398-.05-.77-.251-1.18-.22-.179-.029-.408.069-.55-.079.39-.048.793.031 1.17-.1.234-.086.48-.117.725-.151l.082-.099c-.263-.02-.5-.142-.754-.202-.276-.035-.557-.014-.834-.035-.05 0-.093-.031-.133-.058.379-.065.773.028 1.143-.099.243-.079.493-.137.75-.145l.041-.13c-.31-.047-.587-.234-.905-.237-.225-.01-.45-.018-.675-.024l.01-.101c.185-.002.37-.002.555-.006.43.023.8-.27 1.234-.245l.047-.153c-.212-.027-.418-.085-.619-.159-.349-.122-.738.015-1.08-.124.264-.059.538-.03.808-.05.377-.004.71-.235 1.091-.218l.042-.132c-.326-.047-.627-.216-.96-.219-.237-.013-.477.01-.71-.041.06-.038.128-.059.2-.056.341-.019.695.019 1.023-.102.207-.072.424-.115.642-.126l.05-.158c-.296-.042-.567-.2-.869-.21-.245-.013-.491-.01-.737-.02L20.54.92c.38-.03.773.038 1.14-.088.214-.072.436-.107.655-.154l.069-.142c-.231-.042-.449-.131-.676-.187-.32-.042-.646-.02-.966-.071.147-.116.35-.046.52-.063zm13.532.005c1.238-.133 2.495-.335 3.738-.14.59.094 1.205.303 1.59.78.438.527.506 1.256.425 1.91-.844.005-1.687-.005-2.53.006.01-.237.007-.498-.147-.694-.229-.313-.642-.42-1.016-.417-.812-.015-1.616.407-2.062 1.079-.31.453-.507.972-.652 1.497-.078.334-.161.7-.02 1.03.14.299.472.45.787.488.532.058 1.1-.013 1.562-.294.372-.225.662-.557.915-.903.84.002 1.681-.003 2.522.003-.246.39-.505.773-.806 1.124-.826.945-2.023 1.55-3.273 1.698-.736.088-1.482.087-2.216-.006-.27-.033-.533-.12-.808-.115-.39 0-.75-.187-1.138-.192-.275-.007-.55-.002-.825-.014.028-.057.073-.084.136-.08.4-.031.814.039 1.203-.083-.121-.095-.225-.21-.345-.304-.133-.015-.268-.008-.4-.02-.351-.025-.671-.216-1.028-.191-.214-.02-.449.042-.649-.053.377-.107.78.013 1.153-.108.198-.06.396-.116.6-.156l-.08-.148c-.249.008-.494-.04-.73-.114-.39-.132-.806-.075-1.208-.113.113-.125.307-.057.458-.076.463.035.904-.125 1.35-.216l.01-.133c-.287-.013-.564-.086-.84-.153-.352-.091-.717-.026-1.073-.072.04-.05.09-.074.153-.073.358-.022.73.029 1.073-.098.22-.081.452-.115.686-.12l.054-.172c-.319-.004-.62-.114-.925-.187-.323-.052-.652-.02-.977-.037l.035-.085c.416-.014.846.031 1.246-.11.23-.082.474-.09.713-.12l.073-.092c-.224-.032-.446-.073-.657-.155-.39-.14-.818-.013-1.215-.122.349-.11.728.008 1.082-.085.318-.084.634-.184.967-.174l.062-.134c-.251-.06-.489-.165-.743-.214-.327-.036-.657-.01-.983-.054l.084-.065c.396-.046.81.033 1.19-.118.24-.095.498-.134.757-.142l.102-.158c-.33-.032-.632-.204-.966-.204-.266-.007-.533-.005-.798-.026.034-.03.062-.078.115-.072.413-.034.841.026 1.24-.11.257-.09.528-.131.8-.125l.135-.15c-.287-.065-.57-.168-.867-.173-.282-.008-.564-.008-.846-.016l-.001-.07c.496-.03 1.007.025 1.488-.122.243-.069.495-.097.746-.109.12-.091.241-.182.36-.275-.62-.182-1.275-.085-1.91-.136l.104-.063c.412-.023.826 0 1.238-.018.35-.03.69-.128 1.038-.165.348-.028.64-.238.97-.335-.674-.037-1.35-.02-2.023-.062.056-.05.125-.076.202-.068.531-.006 1.063.007 1.595-.006z"/>
        <path id="prefix__y" d="M1.276 0c.67.02 1.39-.075 2.005.248-.254.064-.504.153-.766.18-.29.024-.583.007-.872.03l-.098.067C1.9.562 2.263.521 2.617.58c.298.089.599.182.913.182l-.003.135c-.224.017-.448.057-.656.144-.34.144-.714.069-1.07.112l-.082.06c.374.066.77-.017 1.13.12.174.064.35.123.532.149l-.041.12c-.264 0-.52.06-.77.141-.358.123-.744.02-1.109.101.336.125.712-.004 1.053.107.208.072.416.15.638.157l-.075.116c-.266-.008-.526.046-.777.128-.355.12-.733.055-1.1.089l.007.08c.216.001.432-.001.648.003.318.004.608.148.916.202-.06.058-.12.118-.18.179-.267-.012-.534.021-.785.113-.347.13-.722.055-1.082.1l-.07.068c.42.025.852-.023 1.257.124-.336.12-.697.085-1.046.114-.287.026-.576.014-.865.017C.426 2.293.843 1.144 1.276 0zm18.233.004c.669.007 1.383-.07 2.004.233-.532.229-1.115.207-1.68.219l-.022.078c.233.003.467.013.7.016.43-.015.817.228 1.25.21l.009.134c-.207.021-.416.048-.609.128-.361.158-.764.098-1.146.124l-.032.071c.375.058.77-.022 1.13.124.162.061.329.112.5.14l-.027.12c-.258.001-.51.053-.753.135-.361.128-.748.04-1.12.094.077.09.2.058.302.068.28.01.572-.025.838.085.177.072.365.106.553.133l-.09.092c-.242.03-.49.04-.72.127-.329.12-.682.082-1.023.097-.071-.012-.124.026-.164.078.293.022.589-.006.881.03.242.05.474.135.717.184l-.175.18c-.179.004-.361-.01-.535.04-.22.06-.435.147-.666.15-.225.016-.454-.01-.677.026l-.067.061c.418.039.854-.032 1.252.133-.34.119-.703.076-1.055.11-.28.023-.563.015-.845.013.423-1.144.85-2.288 1.27-3.433z"/>
        <path id="prefix__A" d="M4.88 0c.138.003.277.005.415.01-.235.577-.5 1.138-.748 1.708l-.428.002c.249-.576.5-1.15.761-1.72zm1.162.006c.143-.012.287-.003.43-.001-.04.093-.084.186-.126.279-.154.003-.308.003-.462.002.049-.094.092-.194.158-.28zm7.04-.005h.45c-.036.089-.065.183-.126.26-.145.047-.31.013-.462.023.046-.094.093-.188.138-.283zM24.286 0c.142 0 .284 0 .425.002-.239.58-.501 1.149-.763 1.718h-.413c.212-.59.503-1.146.751-1.72zM0 1.717C.26 1.145.5.563.777 0c.437.024.887-.052 1.313.083.183.053.301.262.253.459-.1.622-.641 1.103-1.223 1.157-.372.036-.747.014-1.12.018zM20.025 0l.45.003c-.03.427-.057.853-.098 1.278.332-.418.643-.857.97-1.28.141 0 .281 0 .423.008-.424.598-.911 1.13-1.355 1.709l-.396.002c-.017-.573-.024-1.148.006-1.72z"/>
        <path id="prefix__C" d="M.445.01c.236.026.538-.099.718.138.058.256-.079.508-.205.703-.235.327-.631.293-.958.296C.13.758.3.39.445.01z"/>
        <path id="prefix__E" d="M.195.397C.488.06 1.032-.066 1.499.033c.111.029.216.097.256.193.037.15-.038.298-.114.43C1.256.653.87.646.487.656L.484.855c.111.02.223.053.338.036.119-.017.215-.09.334-.105.125-.01.25-.005.375 0-.215.248-.592.331-.934.36-.212.009-.478-.037-.575-.219C-.05.738.07.548.195.397zM4.707.001h.53c-.02.272-.046.544-.074.816.273-.27.549-.539.812-.817.165 0 .33.001.497.006-.41.386-.829.766-1.253 1.14h-.49L4.706 0zm2.422.581C7.39.08 8.185-.15 8.749.106c.14.174.067.385-.048.551-.39 0-.782-.007-1.172.007 0 .071.019.139.055.202.149.056.323.041.465-.024.171-.088.375-.055.564-.056-.266.256-.675.373-1.067.36-.162-.014-.354-.049-.44-.181-.08-.118-.042-.266.023-.383z"/>
        <path id="prefix__G" d="M6.321.207c.215-.129.465-.22.74-.205-.058.098-.116.197-.172.296-.236.008-.514.012-.67.18-.169.208-.275.445-.41.667l-.514.002c.213-.374.443-.74.653-1.114.158-.003.315-.003.473-.003l-.1.177zm2.793-.06c.241-.13.539-.201.802-.096.116.054.094.208.055.306-.112.265-.253.517-.36.786-.136.003-.273.003-.41.003.098-.297.301-.552.354-.864-.186-.026-.42-.044-.545.127-.152.227-.239.49-.362.733-.137.004-.274.004-.41.005.167-.376.35-.745.523-1.12h.395l-.042.12zm1.19.618c.156-.497.743-.85 1.298-.747.101.008.169.085.246.138.021-.04.043-.078.066-.117.147 0 .294 0 .442.002-.19.388-.393.77-.594 1.152-.113.229-.34.409-.61.455-.253.032-.512.116-.765.042-.155-.022-.31-.078-.385-.215l.062-.14c.154 0 .309 0 .464-.003l.085.11c.168 0 .351.027.506-.052.118-.078.183-.203.262-.312-.275.142-.622.204-.918.084-.159-.07-.204-.25-.159-.397zm5.901-.398c.21-.33.682-.396 1.069-.357.14.01.355.036.377.191-.06.318-.376.567-.356.9h-.445l-.024-.109c-.25.125-.567.218-.84.101-.13-.049-.116-.2-.057-.293.097-.201.349-.282.573-.314.227-.03.459-.041.675-.116l.017-.111c-.17-.053-.368-.06-.512.05-.133.105-.318.054-.477.058zM20.415 0l.386.004c-.098.29-.275.547-.354.845.208.088.484.031.595-.178.116-.22.214-.449.324-.672l.404.004-.526 1.108h-.39l.037-.116c-.249.136-.574.22-.835.073-.099-.097-.033-.238.011-.344.115-.242.229-.484.348-.724zm1.358.788c.106-.647 1.113-1.007 1.732-.645.063.176.022.363-.098.514-.38-.002-.761-.002-1.142 0-.004.07-.005.14-.005.21.16.026.334.056.485-.016.172-.093.38-.069.573-.063-.28.274-.73.39-1.144.35-.208-.015-.435-.151-.4-.35zM.665.003C.835 0 1.006-.001 1.177 0 .972.388.735.762.518 1.145c-.173 0-.346 0-.518.002C.214.762.445.384.665.003zM7.06 1.146C7.282.763 7.504.38 7.732 0l.505.004c-.22.38-.446.76-.66 1.142H7.06z"/>
        <path id="prefix__I" d="M0 .272C.128.017.383-.08.588.072.576.145.562.216.55.287.366.286.183.29 0 .272zm6.472.002c.12-.187.326-.35.513-.236.085.01.098.169.039.232-.183.033-.368.008-.552.004zm7.65.225c-.012-.314.303-.617.568-.453.117.33-.32.685-.569.453zm10.59-.222c.112-.21.348-.358.537-.229.084.036.037.155.044.237-.194 0-.388.007-.582-.008zm-5.787.495c.16-.1.326-.144.491-.199-.088.428-.344.68-.582.53-.023-.138.02-.285.091-.33z"/>
    </defs>
    <g fill="none" fill-rule="evenodd" transform="translate(.082 .327)">
        <mask id="prefix__b" fill="#fff">
            <use xlink:href="#prefix__a"/>
        </mask>
        <path fill="#FCFCFC" d="M-2.942 20.066L81.195 20.066 81.195 -2.867 -2.942 -2.867z" mask="url(#prefix__b)"/>
        <g transform="translate(53.542)">
            <mask id="prefix__d" fill="#fff">
                <use xlink:href="#prefix__c"/>
            </mask>
            <path fill="#D82B23" d="M-2.942 20.066L15.298 20.066 15.298 -2.867 -2.942 -2.867z" mask="url(#prefix__d)"/>
        </g>
        <g transform="translate(40.009)">
            <mask id="prefix__f" fill="#fff">
                <use xlink:href="#prefix__e"/>
            </mask>
            <path fill="#07287F" d="M-2.942 20.066L41.186 20.066 41.186 -2.867 -2.942 -2.867z" mask="url(#prefix__f)"/>
        </g>
        <g transform="translate(44.128 4.587)">
            <mask id="prefix__h" fill="#fff">
                <use xlink:href="#prefix__g"/>
            </mask>
            <path fill="#07287F" d="M-2.942 3.153L4.119 3.153 4.119 -2.867 -2.942 -2.867z" mask="url(#prefix__h)"/>
        </g>
        <g transform="translate(42.95 4.587)">
            <mask id="prefix__j" fill="#fff">
                <use xlink:href="#prefix__i"/>
            </mask>
            <path fill="#07287F" d="M-2.942 5.733L8.237 5.733 8.237 -2.867 -2.942 -2.867z" mask="url(#prefix__j)"/>
        </g>
        <g transform="translate(42.95 5.16)">
            <mask id="prefix__l" fill="#fff">
                <use xlink:href="#prefix__k"/>
            </mask>
            <path fill="#FCFCFC" d="M-2.942 4.013L4.119 4.013 4.119 -2.867 -2.942 -2.867z" mask="url(#prefix__l)"/>
        </g>
        <g transform="translate(43.54 5.733)">
            <mask id="prefix__n" fill="#fff">
                <use xlink:href="#prefix__m"/>
            </mask>
            <path fill="#07287F" d="M-2.942 3.44L3.53 3.44 3.53 -2.867 -2.942 -2.867z" mask="url(#prefix__n)"/>
        </g>
        <g transform="translate(44.128 5.733)">
            <mask id="prefix__p" fill="#fff">
                <use xlink:href="#prefix__o"/>
            </mask>
            <path fill="#FCFCFC" d="M-2.942 4.013L4.119 4.013 4.119 -2.867 -2.942 -2.867z" mask="url(#prefix__p)"/>
        </g>
        <g transform="translate(44.716 5.733)">
            <mask id="prefix__r" fill="#fff">
                <use xlink:href="#prefix__q"/>
            </mask>
            <path fill="#FCFCFC" d="M-2.942 4.013L4.119 4.013 4.119 -2.867 -2.942 -2.867z" mask="url(#prefix__r)"/>
        </g>
        <g transform="translate(45.304 6.306)">
            <mask id="prefix__t" fill="#fff">
                <use xlink:href="#prefix__s"/>
            </mask>
            <path fill="#07287F" d="M-2.942 3.44L3.53 3.44 3.53 -2.867 -2.942 -2.867z" mask="url(#prefix__t)"/>
        </g>
        <g transform="translate(45.893 6.306)">
            <mask id="prefix__v" fill="#fff">
                <use xlink:href="#prefix__u"/>
            </mask>
            <path fill="#FCFCFC" d="M-2.942 4.013L4.119 4.013 4.119 -2.867 -2.942 -2.867z" mask="url(#prefix__v)"/>
        </g>
        <g transform="translate(0 6.306)">
            <mask id="prefix__x" fill="#fff">
                <use xlink:href="#prefix__w"/>
            </mask>
            <path fill="#07287F" d="M-2.942 10.32L43.539 10.32 43.539 -2.867 -2.942 -2.867z" mask="url(#prefix__x)"/>
        </g>
        <g transform="translate(5.295 8.026)">
            <mask id="prefix__z" fill="#fff">
                <use xlink:href="#prefix__y"/>
            </mask>
            <path fill="#FCFCFC" d="M-2.942 6.306L24.711 6.306 24.711 -2.867 -2.942 -2.867z" mask="url(#prefix__z)"/>
        </g>
        <g transform="translate(22.946 14.906)">
            <mask id="prefix__B" fill="#fff">
                <use xlink:href="#prefix__A"/>
            </mask>
            <path fill="#D82B23" d="M-2.942 4.587L27.653 4.587 27.653 -2.867 -2.942 -2.867z" mask="url(#prefix__B)"/>
        </g>
        <g transform="translate(23.535 15.48)">
            <mask id="prefix__D" fill="#fff">
                <use xlink:href="#prefix__C"/>
            </mask>
            <path fill="#FCFCFC" d="M-2.942 4.013L4.119 4.013 4.119 -2.867 -2.942 -2.867z" mask="url(#prefix__D)"/>
        </g>
        <g transform="translate(25.3 15.48)">
            <mask id="prefix__F" fill="#fff">
                <use xlink:href="#prefix__E"/>
            </mask>
            <path fill="#D82B23" d="M-2.942 4.013L11.767 4.013 11.767 -2.867 -2.942 -2.867z" mask="url(#prefix__F)"/>
        </g>
        <g transform="translate(28.242 15.48)">
            <mask id="prefix__H" fill="#fff">
                <use xlink:href="#prefix__G"/>
            </mask>
            <path fill="#D82B23" d="M-2.942 4.587L26.477 4.587 26.477 -2.867 -2.942 -2.867z" mask="url(#prefix__H)"/>
        </g>
        <g transform="translate(25.888 15.48)">
            <mask id="prefix__J" fill="#fff">
                <use xlink:href="#prefix__I"/>
            </mask>
            <path fill="#FCFCFC" d="M-2.942 4.013L28.242 4.013 28.242 -2.867 -2.942 -2.867z" mask="url(#prefix__J)"/>
        </g>
    </g>
</svg>
