<svg xmlns="http://www.w3.org/2000/svg" xmlns:xlink="http://www.w3.org/1999/xlink" width="60" height="27" viewBox="0 0 60 27">
    <defs>
        <path id="prefix__a" d="M.068 2.213C.068 1.076.946.308 1.942.308c.996 0 1.873.768 1.873 1.905 0 1.138-.877 1.906-1.873 1.906S.068 3.351.068 2.213zm1.883-.215c.32 0 .41-.175.41-.328 0-.184-.09-.327-.41-.327h-.407v.655h.407zm-.407.296V3.34h-.329V1.035h.816c.478 0 .698.215.698.635 0 .257-.17.462-.388.492v.01c.188.03.258.206.298.523.03.204.07.563.14.645H2.39c-.09-.215-.08-.522-.15-.778-.058-.195-.158-.268-.377-.268h-.319zm1.912-.08c0-.923-.637-1.599-1.514-1.599S.427 1.291.427 2.213s.638 1.598 1.515 1.598c.877 0 1.514-.676 1.514-1.598z"/>
        <path id="prefix__c" d="M9.702 10.582L7.542 8.091 5.403 10.582 0.901 10.582 5.301 5.496 0.901 0.41 5.543 0.41 7.724 2.881 9.823 0.41 14.305 0.41 9.925 5.476 14.364 10.582z"/>
        <path id="prefix__e" d="M0.788 16.406L0.788 0.383 9.437 0.383 9.437 3.955 4.452 3.955 4.452 6.234 9.437 6.234 9.437 9.671 4.452 9.671 4.452 12.825 9.437 12.825 9.437 16.406z"/>
        <path id="prefix__g" d="M25.277 13.966c-1.345 0-2.181-1.288-2.181-2.634 0-1.437.728-2.82 2.18-2.82 1.508 0 2.109 1.383 2.109 2.82 0 1.364-.637 2.634-2.108 2.634zM12.313 9.718c.23-1.017.998-1.683 1.956-1.683 1.055 0 1.783.646 1.975 1.683h-3.931zM27.491.383V6.94h-.04c-.808-.954-1.817-1.287-2.987-1.287-2.4 0-4.206 1.678-4.84 3.895-.724-2.443-2.589-3.94-5.355-3.94-2.246 0-4.02 1.036-4.946 2.726v-2.1H4.681v-2.28h5.066V.383H.542v16.023H4.68V9.67h4.125c-.123.495-.19 1.026-.19 1.584 0 3.342 2.484 5.688 5.653 5.688 2.665 0 4.421-1.287 5.35-3.632h-3.547c-.48.705-.844.914-1.803.914-1.112 0-2.071-.997-2.071-2.181h7.222c.314 2.655 2.325 4.945 5.083 4.945 1.19 0 2.282-.603 2.948-1.62h.04v1.038h3.648V.383h-3.648z"/>
        <path id="prefix__i" d="M3.044 5.64c.47 0 .84-.07 1.204-.198V3.579H2.882v-.428h1.874v2.601c-.586.19-1.04.317-1.727.317-1.697 0-2.63-1.348-2.63-2.965C.4 1.485 1.132.138 2.828.138c.918 0 1.658.5 1.858 1.38h-.555C4.016.906 3.407.565 2.844.565 1.447.566.932 1.874.932 3.104c0 1.23.716 2.537 2.112 2.537z"/>
        <path id="prefix__k" d="M1.6 1.363c-.778 0-1.048.674-1.048 1.372v2.268h-.47v-2.83c0-.39-.008-.786-.023-1.182H.52l.032.578c.23-.46.616-.673 1.133-.673.07 0 .147.008.216.015v.485c-.108-.017-.193-.033-.3-.033z"/>
        <path id="prefix__m" d="M2.013 4.733c.932 0 1.326-.871 1.326-1.736 0-.864-.394-1.737-1.326-1.737-.934 0-1.327.873-1.327 1.737 0 .865.393 1.736 1.327 1.736zm0 .364c-1.188 0-1.827-.942-1.827-2.1C.186 1.84.825.895 2.013.895c1.186 0 1.827.945 1.827 2.102 0 1.158-.64 2.1-1.827 2.1z"/>
        <path id="prefix__o" d="M2.697 4.033l-.015-.603c-.27.467-.694.697-1.264.697-1.041 0-1.389-.586-1.389-1.594V.02H.5v2.324c0 .745.17 1.38.995 1.38.88 0 1.173-.801 1.173-1.595V.02h.471v2.814c0 .398.007.802.023 1.2h-.464z"/>
        <path id="prefix__q" d="M.865.991l.015.603c.27-.468.694-.699 1.265-.699 1.04 0 1.387.588 1.387 1.594v2.515h-.47V2.68c0-.745-.17-1.38-.994-1.38-.88 0-1.172.802-1.172 1.594v2.11H.425V2.188c0-.397-.007-.8-.023-1.197h.463z"/>
        <path id="prefix__s" d="M1.17 3.967c0 .858.347 1.698 1.272 1.698.872 0 1.187-.738 1.187-1.698 0-.958-.315-1.697-1.187-1.697-.925 0-1.272.841-1.272 1.697zM3.63.233h.47v4.543c0 .397 0 .802.023 1.199H3.66l-.014-.604c-.294.475-.68.698-1.257.698-1.203 0-1.72-1.022-1.72-2.102 0-1.077.517-2.101 1.72-2.101.538 0 .963.214 1.24.674V.233z"/>
    </defs>
    <g fill="none" fill-rule="evenodd">
        <g transform="translate(0 .25) translate(55.961 12.619)">
            <mask id="prefix__b" fill="#fff">
                <use xlink:href="#prefix__a"/>
            </mask>
            <path fill="#40B93C" d="M-4.674 8.972L8.557 8.972 8.557 -4.545 -4.674 -4.545z" mask="url(#prefix__b)"/>
        </g>
        <g transform="translate(0 .25) translate(39.837 5.824)">
            <mask id="prefix__d" fill="#fff">
                <use xlink:href="#prefix__c"/>
            </mask>
            <path fill="#40B93C" d="M-3.841 15.435L19.106 15.435 19.106 -4.444 -3.841 -4.444z" mask="url(#prefix__d)"/>
        </g>
        <g transform="translate(0 .25) translate(31.3)">
            <mask id="prefix__f" fill="#fff">
                <use xlink:href="#prefix__e"/>
            </mask>
            <path fill="#40B93C" d="M-3.954 21.259L14.179 21.259 14.179 -4.47 -3.954 -4.47z" mask="url(#prefix__f)"/>
        </g>
        <g transform="translate(0 .25) translate(.948)">
            <mask id="prefix__h" fill="#fff">
                <use xlink:href="#prefix__g"/>
            </mask>
            <path fill="#412C91" d="M-4.201 21.841L35.882 21.841 35.882 -4.471 -4.201 -4.471z" mask="url(#prefix__h)"/>
        </g>
        <g transform="translate(0 .25) translate(31.3 18.443)">
            <mask id="prefix__j" fill="#fff">
                <use xlink:href="#prefix__i"/>
            </mask>
            <path fill="#412C91" d="M-4.343 10.922L9.499 10.922 9.499 -4.716 -4.343 -4.716z" mask="url(#prefix__j)"/>
        </g>
        <g transform="translate(0 .25) translate(36.991 19.414)">
            <mask id="prefix__l" fill="#fff">
                <use xlink:href="#prefix__k"/>
            </mask>
            <path fill="#412C91" d="M-4.684 9.857L6.643 9.857 6.643 -3.958 -4.684 -3.958z" mask="url(#prefix__l)"/>
        </g>
        <g transform="translate(0 .25) translate(38.888 19.414)">
            <mask id="prefix__n" fill="#fff">
                <use xlink:href="#prefix__m"/>
            </mask>
            <path fill="#412C91" d="M-4.557 9.951L8.582 9.951 8.582 -3.958 -4.557 -3.958z" mask="url(#prefix__n)"/>
        </g>
        <g transform="translate(0 .25) translate(43.63 20.385)">
            <mask id="prefix__p" fill="#fff">
                <use xlink:href="#prefix__o"/>
            </mask>
            <path fill="#412C91" d="M-4.713 8.981L7.903 8.981 7.903 -4.833 -4.713 -4.833z" mask="url(#prefix__p)"/>
        </g>
        <g transform="translate(0 .25) translate(47.425 19.414)">
            <mask id="prefix__r" fill="#fff">
                <use xlink:href="#prefix__q"/>
            </mask>
            <path fill="#412C91" d="M-4.341 9.857L8.275 9.857 8.275 -3.958 -4.341 -3.958z" mask="url(#prefix__r)"/>
        </g>
        <g transform="translate(0 .25) translate(51.219 18.443)">
            <mask id="prefix__t" fill="#fff">
                <use xlink:href="#prefix__s"/>
            </mask>
            <path fill="#412C91" d="M-4.074 10.922L8.865 10.922 8.865 -4.621 -4.074 -4.621z" mask="url(#prefix__t)"/>
        </g>
    </g>
</svg>
