<svg xmlns="http://www.w3.org/2000/svg" xmlns:xlink="http://www.w3.org/1999/xlink" width="57" height="27" viewBox="0 0 57 27">
    <defs>
        <path id="prefix__a" d="M5.565 0.187L7.804 2.631 9.958 0.187 14.559 0.187 10.063 5.196 14.621 10.247 9.834 10.247 7.617 7.784 5.421 10.247 0.799 10.247 5.317 5.217 0.799 0.187z"/>
        <path id="prefix__c" d="M9.136 6.157L9.136 9.497 4.268 9.497 4.268 12.562 9.136 12.562 9.136 16.041 0.692 16.041 0.692 0.473 9.136 0.473 9.136 3.943 4.268 3.943 4.268 6.157z"/>
        <path id="prefix__e" d="M27.273.481v6.485h-.04c-.815-.944-1.83-1.272-3.009-1.272-2.415 0-4.234 1.659-4.872 3.85-.729-2.415-2.607-3.896-5.392-3.896-2.261 0-4.047 1.026-4.979 2.696V6.268H4.307V4.013h5.101V.481H.14v15.847h4.167V9.667H8.46c-.124.489-.19 1.013-.19 1.566 0 3.305 2.5 5.626 5.69 5.626 2.683 0 4.452-1.273 5.386-3.592h-3.571c-.483.697-.85.904-1.815.904-1.12 0-2.085-.987-2.085-2.157h7.271c.316 2.626 2.34 4.89 5.119 4.89 1.198 0 2.296-.596 2.966-1.6h.041v1.025h3.673V.481h-3.672zM11.992 9.714c.231-1.007 1.004-1.664 1.97-1.664 1.061 0 1.795.637 1.988 1.664h-3.958zm13.051 4.201c-1.354 0-2.196-1.274-2.196-2.605 0-1.422.732-2.79 2.196-2.79 1.518 0 2.122 1.368 2.122 2.79 0 1.348-.64 2.605-2.122 2.605z"/>
        <path id="prefix__g" d="M0.762 5.723L0.762 0.315 4.075 0.315 4.075 0.718 1.308 0.718 1.308 2.713 3.958 2.713 3.958 3.116 1.308 3.116 1.308 5.319 4.199 5.319 4.199 5.722 0.762 5.722z"/>
        <path id="prefix__i" d="M0.946 4.557L2.63 2.381 1.034 0.323 1.681 0.323 2.984 2.005 4.26 0.323 4.907 0.323 3.285 2.381 4.976 4.557 4.321 4.557 2.922 2.757 1.594 4.557z"/>
        <path id="prefix__k" d="M1.145 5.487H.671v-4.07c0-.373 0-.754-.023-1.128h.466l.016.568C1.424.408 1.812.2 2.395.2c1.211 0 1.73.963 1.73 1.978 0 1.017-.519 1.98-1.73 1.98-.544 0-.97-.201-1.25-.635v1.964zm2.477-3.309c0-.806-.35-1.598-1.281-1.598-.878 0-1.196.695-1.196 1.598 0 .904.318 1.598 1.196 1.598.931 0 1.28-.79 1.28-1.598zM6.562.64c-.785 0-1.058.636-1.058 1.292V4.07H5.03V1.4c0-.366-.007-.738-.023-1.112h.468l.03.545C5.738.402 6.127.2 6.647.2c.07 0 .147.007.217.015V.67C6.755.654 6.67.639 6.561.639zm.882 1.621c0 .851.419 1.553 1.28 1.553.668 0 .979-.425 1.095-.85h.45c-.21.79-.715 1.195-1.607 1.195-1.196 0-1.724-.852-1.724-1.912C6.938 1.163 7.489.2 8.724.2c1.25 0 1.584 1.052 1.584 2.06H7.444zm.015-.343h2.345c0-.74-.365-1.374-1.11-1.374-.676 0-1.142.492-1.235 1.374zm4.698 2.241c-.807 0-1.412-.367-1.412-1.196h.474c0 .568.387.851.962.851.536 0 .955-.246.955-.753 0-.456-.489-.576-1.001-.717-.62-.172-1.297-.36-1.297-1.09 0-.814.707-1.053 1.367-1.053.76 0 1.327.283 1.35 1.067h-.474c-.023-.448-.356-.701-.861-.701-.396 0-.877.149-.877.641 0 .45.48.576.993.71.622.164 1.305.343 1.305 1.076 0 .85-.683 1.165-1.484 1.165zm3.284 0c-.807 0-1.412-.367-1.412-1.196h.473c0 .568.388.851.964.851.536 0 .954-.246.954-.753 0-.456-.49-.576-1.001-.717-.621-.172-1.296-.36-1.296-1.09 0-.814.706-1.053 1.366-1.053.76 0 1.328.283 1.35 1.067h-.473c-.023-.448-.357-.701-.862-.701-.396 0-.877.149-.877.641 0 .45.481.576.994.71.622.164 1.305.343 1.305 1.076-.002.85-.685 1.165-1.485 1.165z"/>
    </defs>
    <g fill="none" fill-rule="evenodd" transform="translate(.143 .27)">
        <g transform="translate(39.157 5.791)">
            <mask id="prefix__b" fill="#fff">
                <use xlink:href="#prefix__a"/>
            </mask>
            <path fill="#FF5900" d="M-3.605 14.59L19.024 14.59 19.024 -4.157 -3.605 -4.157z" mask="url(#prefix__b)"/>
        </g>
        <g transform="translate(29.944)">
            <mask id="prefix__d" fill="#fff">
                <use xlink:href="#prefix__c"/>
            </mask>
            <path fill="#FF5900" d="M-3.496 20.308L13.324 20.308 13.324 -3.794 -3.496 -3.794z" mask="url(#prefix__d)"/>
        </g>
        <mask id="prefix__f" fill="#fff">
            <use xlink:href="#prefix__e"/>
        </mask>
        <path fill="#2A007C" d="M-4.179 21.247L35.264 21.247 35.264 -3.862 -4.179 -3.862z" mask="url(#prefix__f)"/>
        <g transform="translate(29.944 17.373)">
            <mask id="prefix__h" fill="#fff">
                <use xlink:href="#prefix__g"/>
            </mask>
            <path fill="#2A007C" d="M-3.845 9.86L8.805 9.86 8.805 -3.821 -3.845 -3.821z" mask="url(#prefix__h)"/>
        </g>
        <g transform="translate(33.399 19.69)">
            <mask id="prefix__j" fill="#fff">
                <use xlink:href="#prefix__i"/>
            </mask>
            <path fill="#2A007C" d="M-3.852 9.19L9.775 9.19 9.775 -4.309 -3.852 -4.309z" mask="url(#prefix__j)"/>
        </g>
        <g transform="translate(38.006 19.69)">
            <mask id="prefix__l" fill="#fff">
                <use xlink:href="#prefix__k"/>
            </mask>
            <path fill="#2A007C" d="M-3.671 9.623L21.245 9.623 21.245 -3.937 -3.671 -3.937z" mask="url(#prefix__l)"/>
        </g>
    </g>
</svg>
