<svg xmlns="http://www.w3.org/2000/svg" width="112" height="53" viewBox="0 0 112 53">
    <g fill="none" fill-rule="evenodd">
        <rect width="111.712" height="52.333" fill="#FFF" rx="4"/>
        <g fill-rule="nonzero">
            <path fill="#00579F" d="M23.497 16.796L19.124 16.796 21.859.503 26.231.503zM39.347.902c-.863-.33-2.23-.694-3.922-.694-4.318 0-7.358 2.218-7.377 5.39-.036 2.34 2.177 3.64 3.832 4.42 1.692.798 2.267 1.318 2.267 2.029-.018 1.091-1.367 1.594-2.626 1.594-1.746 0-2.681-.259-4.102-.866l-.576-.26-.612 3.657c1.025.45 2.915.85 4.876.867 4.588 0 7.575-2.184 7.61-5.564.017-1.855-1.15-3.276-3.67-4.437-1.53-.746-2.466-1.249-2.466-2.011.018-.694.792-1.404 2.519-1.404 1.421-.035 2.465.294 3.256.624l.396.173.595-3.518zm5.81 10.122c.36-.936 1.746-4.558 1.746-4.558-.018.034.36-.954.576-1.56l.305 1.404s.828 3.9 1.008 4.714h-3.634zM50.556.504h-3.382c-1.043 0-1.835.294-2.285 1.351l-6.495 14.94h4.588l.917-2.443h5.614c.126.572.522 2.444.522 2.444h4.048L50.555.503zm-35.083 0l-4.281 11.11-.468-2.254c-.792-2.6-3.275-5.425-6.045-6.83L8.6 16.78h4.623L20.096.503h-4.624z" transform="translate(29 17)"/>
            <path fill="#FAA61A" d="M7.214.503H.18l-.072.33C5.595 2.185 9.23 5.443 10.723 9.36l-1.53-7.488C8.942.833 8.168.538 7.214.503z" transform="translate(29 17)"/>
        </g>
    </g>
</svg>
